<?xml version="1.0" encoding="utf-8"?>
<!-- Generator: Adobe Illustrator 24.2.1, SVG Export Plug-In . SVG Version: 6.00 Build 0)  -->
<svg version="1.1" id="Layer_2" xmlns="http://www.w3.org/2000/svg" xmlns:xlink="http://www.w3.org/1999/xlink" x="0px" y="0px"
	 viewBox="0 0 24 24" style="enable-background:new 0 0 24 24;" xml:space="preserve">
<g>
	<path d="M17.1,0.6H4.3c-1.5,0-2.1,1.2-2.2,2v14.9h2l0-14.9c0,0,0,0,0.1,0h12.7V0.6z"/>
	<path d="M21.7,21V6.1c0-1.3-1-1.9-2-1.9H8c-1.5,0-2.1,1.2-2.2,2v14.9c0,1.6,1.1,2.3,1.9,2.3h12.1c0.6,0,1-0.2,1.4-0.6
		C21.8,22.2,21.8,21.3,21.7,21z M7.9,21.4c0,0-0.1-0.1-0.1-0.3l0-14.9c0,0,0,0,0.1,0l11.7,0c0,0,0,0,0,0v14.9l0,0.2
		c0,0.1,0,0.1,0,0.2H7.9z"/>
</g>
</svg>
